<svg xmlns="http://www.w3.org/2000/svg" xmlns:xlink="http://www.w3.org/1999/xlink" width="16" height="16"><defs><linearGradient id="a"><stop offset="0" stop-opacity="0"/><stop offset=".5"/><stop offset="1" stop-opacity="0"/></linearGradient><linearGradient id="b"><stop offset="0" stop-color="#fff"/><stop offset="1" stop-color="#efefef"/></linearGradient><linearGradient id="c"><stop offset="0" stop-color="#a3a3a3"/><stop offset="1" stop-color="#f6f6f6"/></linearGradient><linearGradient id="d" x1="1" x2="1" y1="13" y2="9" gradientUnits="userSpaceOnUse" xlink:href="#a"/><linearGradient id="e" x1="11" x2="11" y1="7" y2="13" gradientUnits="userSpaceOnUse" xlink:href="#b"/><linearGradient id="f" x1="5" x2="5" y1="4" y2="11" gradientUnits="userSpaceOnUse" xlink:href="#b"/><linearGradient id="g" x1="9" x2="9" y1="1" y2="7" gradientUnits="userSpaceOnUse" xlink:href="#b"/><linearGradient id="h" x1="14" x2="8" y1="14" y2="8" gradientUnits="userSpaceOnUse" xlink:href="#c"/></defs><path fill="url(#d)" d="M1 9h5v4H1z" opacity=".13"/><path fill="url(#e)" stroke="#787878" d="M15 6.5c.29 0 .5.22.5.5v6c0 .28-.21.5-.5.5h-.5V15l-2-1.5H7c-.3 0-.5-.22-.5-.5V7c0-.28.2-.5.5-.5z"/><path fill="url(#f)" stroke="#787878" d="M1 3.5c-.3 0-.5.22-.5.5v6c0 .28.2.5.5.5h.5V12l2-1.5H9c.3 0 .5-.22.5-.5V4c0-.28-.2-.5-.5-.5z"/><path fill="url(#g)" stroke="#787878" d="M13 .5c.3 0 .5.22.5.5v6c0 .28-.2.5-.5.5h-.5V9l-2-1.5H5c-.3 0-.5-.22-.5-.5V1c0-.28.2-.5.5-.5z"/><path fill="#787878" d="M16 11a5 5 0 11-10 0 5 5 0 1110 0z"/><path fill="url(#h)" d="M15.38 11a4.38 4.38 0 11-8.76 0 4.38 4.38 0 118.76 0z"/></svg>