<svg xmlns="http://www.w3.org/2000/svg" xmlns:cc="http://web.resource.org/cc/" xmlns:svg="http://www.w3.org/2000/svg" xmlns:xlink="http://www.w3.org/1999/xlink" id="svg2" width="744.094" height="1052.362"><defs id="defs4"><linearGradient id="linearGradient3526"><stop style="stop-color:#00561d;stop-opacity:1" id="stop3528" offset="0"/><stop style="stop-color:#00561d;stop-opacity:0" id="stop3530" offset="1"/></linearGradient><linearGradient id="linearGradient3484"><stop style="stop-color:#00a83e;stop-opacity:1" id="stop3486" offset="0"/><stop style="stop-color:#73cf95;stop-opacity:1" id="stop3488" offset="1"/></linearGradient><linearGradient id="linearGradient3458"><stop style="stop-color:#009b35;stop-opacity:1" id="stop3460" offset="0"/><stop style="stop-color:#00561d;stop-opacity:1" id="stop3462" offset="1"/></linearGradient><linearGradient id="linearGradient2242" x1="441.503" x2="553.64" y1="596.546" y2="786.834" gradientTransform="matrix(0.1730824,0,0,0.1718448,373.11251,357.18549)" gradientUnits="userSpaceOnUse" xlink:href="#linearGradient5809"/><linearGradient id="linearGradient2239" x1="331.574" x2="225.658" y1="354.458" y2="133.545" gradientTransform="matrix(0.1730824,0,0,0.1718448,373.11251,357.18549)" gradientUnits="userSpaceOnUse" xlink:href="#linearGradient5074"/><linearGradient id="linearGradient2234" x1="331.574" x2="225.658" y1="354.458" y2="133.545" gradientTransform="translate(155.91995,3.7227902)" gradientUnits="userSpaceOnUse" xlink:href="#linearGradient5074"/><linearGradient id="linearGradient2232" x1="441.503" x2="553.64" y1="596.546" y2="786.834" gradientTransform="translate(155.91995,3.7227902)" gradientUnits="userSpaceOnUse" xlink:href="#linearGradient5809"/><radialGradient id="radialGradient11020" cx="822.358" cy="334.105" r="37.657" fx="822.358" fy="334.105" gradientTransform="matrix(1.389618,6.572876e-8,-1.395947e-8,0.295127,-1147.0601,218.83232)" gradientUnits="userSpaceOnUse" xlink:href="#linearGradient10990"/><radialGradient id="radialGradient11018" cx="834.063" cy="379.374" r="48.538" fx="834.063" fy="379.374" gradientTransform="matrix(1.604552,0.137396,-4.558732e-2,0.532382,-1332.9848,57.130614)" gradientUnits="userSpaceOnUse" xlink:href="#linearGradient10990"/><radialGradient id="radialGradient11016" cx="834.165" cy="416.627" r="51.49" fx="834.165" fy="416.627" gradientTransform="matrix(1.536957,0.35811,-0.115486,0.495648,-1220.8078,-81.019121)" gradientUnits="userSpaceOnUse" xlink:href="#linearGradient10990"/><radialGradient id="radialGradient11014" cx="559.931" cy="653.197" r="22.917" fx="559.931" fy="653.197" gradientTransform="matrix(-0.523809,2.977912,-0.573765,-0.100924,597.43787,-1122.4516)" gradientUnits="userSpaceOnUse" xlink:href="#linearGradient10990"/><radialGradient id="radialGradient11012" cx="596.68" cy="635.968" r="21.038" fx="596.68" fy="635.968" gradientTransform="matrix(-0.492499,4.368806,-0.629878,-7.100652e-2,732.99123,-2042.7743)" gradientUnits="userSpaceOnUse" xlink:href="#linearGradient10990"/><radialGradient id="radialGradient11010" cx="637.071" cy="620.452" r="20.071" fx="637.071" fy="620.452" gradientTransform="matrix(1.261524e-6,4.784578,-0.528762,1.394159e-7,258.39389,-2486.0713)" gradientUnits="userSpaceOnUse" xlink:href="#linearGradient10990"/><radialGradient id="radialGradient11008" cx="665.837" cy="613.807" r="23.94" fx="665.837" fy="613.807" gradientTransform="matrix(0.334297,4.019557,-0.995094,8.275962e-2,391.82207,-2240.9819)" gradientUnits="userSpaceOnUse" xlink:href="#linearGradient10990"/><radialGradient id="radialGradient11006" cx="696.785" cy="592.33" r="27.265" fx="696.785" fy="592.33" gradientTransform="matrix(0.948955,4.089824,-0.993629,0.230546,-207.73447,-2450.4193)" gradientUnits="userSpaceOnUse" xlink:href="#linearGradient10990"/><radialGradient id="radialGradient11004" cx="734.743" cy="565.76" r="39.235" fx="734.743" fy="565.76" gradientTransform="matrix(0.747853,2.224634,-0.425239,0.142953,-427.60907,-1188.9396)" gradientUnits="userSpaceOnUse" xlink:href="#linearGradient10990"/><radialGradient id="radialGradient11002" cx="793.182" cy="558.899" r="55.195" fx="793.182" fy="558.899" gradientTransform="matrix(1.006265,1.510239,-0.401621,0.267598,-663.16697,-833.15883)" gradientUnits="userSpaceOnUse" xlink:href="#linearGradient10990"/><radialGradient id="radialGradient11000" cx="799.92" cy="520.17" r="57.855" fx="799.92" fy="520.17" gradientTransform="matrix(1.238186,1.07492,-0.532416,0.613282,-668.29405,-630.01478)" gradientUnits="userSpaceOnUse" xlink:href="#linearGradient10990"/><radialGradient id="radialGradient10262" cx="825.402" cy="457.292" r="53.865" fx="825.402" fy="457.292" gradientTransform="matrix(1.442415,0.58951,-0.216275,0.529183,-1132.7474,-269.06738)" gradientUnits="userSpaceOnUse" xlink:href="#linearGradient10990"/><radialGradient id="radialGradient5823" cx="425.422" cy="432.993" r="165.44" fx="425.422" fy="432.993" gradientTransform="matrix(0.546319,0.218253,-0.436865,1.093538,105.62767,-147.06742)" gradientUnits="userSpaceOnUse" xlink:href="#linearGradient5817"/><linearGradient id="linearGradient5815" x1="441.503" x2="553.64" y1="596.546" y2="786.834" gradientTransform="translate(155.91995,3.7227902)" gradientUnits="userSpaceOnUse" xlink:href="#linearGradient5809"/><linearGradient id="linearGradient5080" x1="331.574" x2="225.658" y1="354.458" y2="133.545" gradientTransform="translate(155.91995,3.7227902)" gradientUnits="userSpaceOnUse" xlink:href="#linearGradient5074"/><linearGradient id="linearGradient5072" x1="225.43" x2="518.044" y1="682.326" y2="294.857" gradientTransform="translate(-478.87675,4.232021)" gradientUnits="userSpaceOnUse" xlink:href="#linearGradient5066"/><linearGradient id="linearGradient5002" x1="544.291" x2="253.71" y1="213.748" y2="653.042" gradientTransform="translate(-453.48462,5.6426947)" gradientUnits="userSpaceOnUse" xlink:href="#linearGradient4996"/><linearGradient id="linearGradient4996"><stop id="stop4998" offset="0" style="stop-color:#fff;stop-opacity:1"/><stop id="stop5000" offset="1" style="stop-color:#fff;stop-opacity:0"/></linearGradient><linearGradient id="linearGradient5006"><stop id="stop5008" offset="0" style="stop-color:#dfefff;stop-opacity:.50196081"/><stop style="stop-color:#8ec6fe;stop-opacity:.50196078" id="stop10260" offset=".7"/><stop style="stop-color:#3e9dfe;stop-opacity:.50196081" id="stop5016" offset=".8"/><stop id="stop5010" offset="1" style="stop-color:#007dfd;stop-opacity:.50196081"/></linearGradient><linearGradient id="linearGradient5066"><stop id="stop5068" offset="0" style="stop-color:#fff;stop-opacity:.62886596"/><stop id="stop5070" offset="1" style="stop-color:#fff;stop-opacity:0"/></linearGradient><linearGradient id="linearGradient5074"><stop id="stop5076" offset="0" style="stop-color:#2b2b9c;stop-opacity:1"/><stop id="stop5078" offset="1" style="stop-color:#5c5cb3;stop-opacity:1"/></linearGradient><linearGradient id="linearGradient5809"><stop id="stop5811" offset="0" style="stop-color:#2727e8;stop-opacity:1"/><stop id="stop5813" offset="1" style="stop-color:#5f5fee;stop-opacity:1"/></linearGradient><linearGradient id="linearGradient5817"><stop id="stop5819" offset="0" style="stop-color:#69b4ff;stop-opacity:1"/><stop id="stop5821" offset="1" style="stop-color:#b0d8ff;stop-opacity:1"/></linearGradient><linearGradient id="linearGradient10990"><stop style="stop-color:#007ffe;stop-opacity:.627451" id="stop10992" offset="0"/><stop id="stop10996" offset=".804" style="stop-color:#3d9eff;stop-opacity:.627451"/><stop style="stop-color:#a5d2ff;stop-opacity:.627451" id="stop10998" offset="1"/></linearGradient><linearGradient id="linearGradient4697"><stop id="stop4699" offset="0" style="stop-color:black;stop-opacity:.49779737"/><stop style="stop-color:black;stop-opacity:.49803922" id="stop4707" offset=".9"/><stop id="stop4701" offset="1" style="stop-color:black;stop-opacity:0"/></linearGradient><linearGradient id="linearGradient5598"><stop id="stop5600" offset="0" style="stop-color:black;stop-opacity:.49779737"/><stop style="stop-color:black;stop-opacity:.49803922" id="stop5606" offset=".953"/><stop id="stop5602" offset="1" style="stop-color:black;stop-opacity:0"/></linearGradient><radialGradient id="radialGradient4155" cx="1087.33" cy="756.816" r="4.133" fx="1087.33" fy="756.816" gradientTransform="matrix(2.0948682,-2.3267471,1.1043583,0.9943003,-2088.218,2560.8382)" gradientUnits="userSpaceOnUse" xlink:href="#linearGradient3484"/><linearGradient id="linearGradient4157" x1="1086.851" x2="1086.851" y1="749.888" y2="754.218" gradientTransform="translate(-62.48626,26.463358)" gradientUnits="userSpaceOnUse" xlink:href="#linearGradient3458"/><linearGradient id="linearGradient4159" x1="1021.761" x2="1021.706" y1="732.213" y2="725.862" gradientUnits="userSpaceOnUse" xlink:href="#linearGradient3526"/><radialGradient id="radialGradient4215" cx="1087.33" cy="756.816" r="4.133" fx="1087.33" fy="756.816" gradientTransform="matrix(2.0948682,-2.3267471,1.1043583,0.9943003,-2088.218,2560.8382)" gradientUnits="userSpaceOnUse" xlink:href="#linearGradient3484"/><linearGradient id="linearGradient4217" x1="1086.851" x2="1086.851" y1="749.888" y2="754.218" gradientTransform="translate(-62.48626,26.463358)" gradientUnits="userSpaceOnUse" xlink:href="#linearGradient3458"/><linearGradient id="linearGradient4219" x1="1021.761" x2="1021.706" y1="732.213" y2="725.862" gradientUnits="userSpaceOnUse" xlink:href="#linearGradient3526"/></defs><metadata id="metadata7"/><g id="layer1"><g id="g4113" transform="translate(-111.1204,289.99552)"><g style="display:inline" id="g4116"><g id="g2219"><path style="fill:#9195e1;fill-opacity:1;fill-rule:evenodd;stroke:none;stroke-width:10;stroke-linecap:butt;stroke-linejoin:round;stroke-miterlimit:4;stroke-dasharray:none;stroke-dashoffset:0;stroke-opacity:1" id="path6573" d="M 760.76114 433.07086 A 395.53806 395.53806 0 1 1 -30.314972,433.07086 A 395.53806 395.53806 0 1 1 760.76114 433.07086 z" transform="matrix(0.1596245,0,0,0.1596247,379.49308,368.61522)"/><path style="fill:url(#linearGradient2242);fill-opacity:1;fill-rule:evenodd;stroke:none;stroke-width:1px;stroke-linecap:butt;stroke-linejoin:miter;stroke-opacity:1" id="path2064" d="M 383.85677,470.3348 C 377.53204,457.98527 375.8029,449.83833 374.32889,438.05062 C 378.14146,437.94123 379.22897,435.80777 405.78478,441.52285 C 412.95251,445.17623 425.27294,447.28507 427.75792,447.19904 C 429.11551,447.27814 440.81785,446.52116 442.80237,445.22243 C 444.78976,444.34028 458.801,442.11776 463.91919,441.56168 C 467.10108,441.09167 468.42806,440.43433 471.65702,440.40231 C 483.01314,435.05163 496.02212,436.88091 501.18154,438.05673 C 501.07384,442.40555 500.53825,448.50951 499.73619,451.31426 C 498.90133,455.26551 498.48114,457.35905 496.52855,460.90786 C 495.66551,464.98599 493.73148,467.62488 490.6986,472.53442 C 487.53223,477.49134 481.84147,482.66091 475.34008,488.08582 C 470.98549,493.97562 455.61977,497.11357 452.39233,498.97297 C 443.83341,501.28353 435.24983,502.14089 420.22819,498.1061 C 403.58315,494.46692 390.60207,479.49025 383.85677,470.3348 z"/><path style="fill:url(#linearGradient2239);fill-opacity:1;fill-rule:evenodd;stroke:none;stroke-width:1px;stroke-linecap:butt;stroke-linejoin:miter;stroke-opacity:1" id="path2056" d="M 375.79574,423.19042 C 376.46114,420.52879 378.05483,415.05973 379.69198,412.87686 C 382.42822,409.22852 386.68249,400.6601 389.77634,396.37516 C 394.2965,390.11479 408.02971,381.77281 414.07051,378.9567 C 423.39221,374.61108 446.52624,372.59535 459.45016,378.49832 C 464.99074,381.02897 475.71552,386.57191 480.07729,391.10378 C 484.14231,395.32736 490.59739,402.8387 493.82869,409.439 C 495.57775,413.01167 500.99233,427.2117 500.24601,427.31584 C 495.53266,427.97351 490.67725,429.69832 485.80703,431.21207 C 482.37937,432.27745 476.48862,435.10831 475.72267,435.10831 C 472.28481,435.10831 460.23197,434.26949 456.69987,434.42074 C 453.17776,434.57156 447.8344,434.5166 446.15714,434.87911 C 441.00943,435.99167 432.69168,434.7769 427.82192,431.89964 C 418.57716,433.82204 415.04824,435.24719 400.54829,430.52451 C 388.3259,426.54363 377.49956,429.46826 376.02493,429.83693 C 374.07594,430.32418 375.44514,424.59281 375.79574,423.19042 z"/><path style="fill:#b2b4ff;fill-opacity:.50196078;fill-rule:evenodd;stroke:none;stroke-width:1px;stroke-linecap:butt;stroke-linejoin:miter;stroke-opacity:1" id="path2058" d="M 374.65256,430.0385 C 374.1887,430.34605 374.35404,436.70005 374.7261,439.81207 C 375.42381,441.15213 373.96937,442.96262 374.78727,444.23876 C 375.84956,445.50451 392.75119,448.41324 405.78478,441.52285 C 412.95251,445.17623 425.27294,447.28507 427.75792,447.19904 C 429.11551,447.27814 458.801,442.11776 463.91919,441.56168 C 467.10108,441.09167 470.26158,440.43433 473.49054,440.40231 C 475.67907,440.32301 485.08548,442.41714 487.59909,443.4404 C 495.57724,446.6882 498.5412,445.36222 500.03457,445.84665 C 500.38527,444.69491 500.99662,442.77975 500.65295,440.54231 C 500.50567,437.84705 501.46062,431.68974 500.42478,429.96717 C 499.56175,429.23232 500.65489,427.62005 499.65535,427.39573 C 496.29864,427.96353 490.39889,429.69905 485.51354,431.30509 C 481.21376,432.7304 479.36406,434.16468 476.48881,434.25965 C 473.78485,435.08987 466.87025,434.66767 463.75584,434.59846 C 457.13736,433.14541 450.20817,429.71277 443.01922,428.49117 C 439.12299,428.19282 431.02825,430.04129 427.80082,431.90068 C 422.67976,429.39825 411.16165,427.88261 406.91193,427.51487 C 391.41486,426.16632 379.20302,428.83964 374.65256,430.0385 z"/><path style="fill:none;fill-opacity:.36184208;fill-rule:evenodd;stroke:#26269a;stroke-width:10.80470085;stroke-linecap:butt;stroke-linejoin:round;stroke-miterlimit:4;stroke-dasharray:none;stroke-dashoffset:0;stroke-opacity:1" id="path2052" d="M 760.76114 433.07086 A 395.53806 395.53806 0 1 1 -30.314972,433.07086 A 395.53806 395.53806 0 1 1 760.76114 433.07086 z" transform="matrix(0.1596245,0,0,0.1596247,379.49308,368.61522)"/></g></g></g><g id="g4125" transform="matrix(2.8571604,0,0,2.8571604,-2600.6084,-1365.6782)"><rect style="opacity:1;fill:#f3f4f5;fill-opacity:1;fill-rule:nonzero;stroke:#3b556e;stroke-width:1;stroke-linecap:round;stroke-linejoin:miter;stroke-miterlimit:4;stroke-dasharray:none;stroke-opacity:1" id="rect4127" width="27" height="18" x="1011.042" y="722.698"/><rect style="opacity:1;fill:#fff;fill-opacity:1;fill-rule:nonzero;stroke:#00561d;stroke-width:1;stroke-linecap:round;stroke-linejoin:miter;stroke-miterlimit:4;stroke-dasharray:none;stroke-opacity:1" id="rect4129" width="19" height="4" x="1015.041" y="727.713"/><path style="fill:none;fill-rule:evenodd;stroke:#49b83c;stroke-width:1px;stroke-linecap:butt;stroke-linejoin:miter;stroke-opacity:1" id="path4131" d="M 1016.0339,727.75491 L 1016.0339,731.5766 L 1016.0339,727.75491 z"/><path id="path4133" d="M 1018.028,727.7436 L 1018.028,731.56529 L 1018.028,727.7436 z" style="fill:none;fill-rule:evenodd;stroke:#49b83c;stroke-width:1px;stroke-linecap:butt;stroke-linejoin:miter;stroke-opacity:1"/><path style="fill:none;fill-rule:evenodd;stroke:#49b83c;stroke-width:1px;stroke-linecap:butt;stroke-linejoin:miter;stroke-opacity:1" id="path4135" d="M 1020.017,727.73673 L 1020.017,731.55842 L 1020.017,727.73673 z"/><path id="path4137" d="M 1022.0115,727.60918 L 1022.0115,731.43087 L 1022.0115,727.60918 z" style="fill:none;fill-rule:evenodd;stroke:#49b83c;stroke-width:1px;stroke-linecap:butt;stroke-linejoin:miter;stroke-opacity:1"/><path style="fill:none;fill-rule:evenodd;stroke:#49b83c;stroke-width:1px;stroke-linecap:butt;stroke-linejoin:miter;stroke-opacity:1" id="path4139" d="M 1023.9948,727.6158 L 1023.9948,731.43749 L 1023.9948,727.6158 z"/><rect id="rect4141" width="19" height="4" x="1015.041" y="727.713" style="opacity:1;fill:none;fill-opacity:1;fill-rule:nonzero;stroke:#73c890;stroke-width:1;stroke-linecap:round;stroke-linejoin:miter;stroke-miterlimit:4;stroke-dasharray:none;stroke-opacity:1"/><g id="g4143" transform="translate(0.1771012,-38.795917)"><path style="fill:#6ec527;fill-opacity:1;fill-rule:evenodd;stroke:none;stroke-width:1px;stroke-linecap:butt;stroke-linejoin:miter;stroke-opacity:1" id="path4145" d="M 1021.0703,782.19928 L 1021.1076,776.58278 L 1027.6873,776.46724 L 1027.6798,782.32766 L 1028.8523,782.41752 L 1024.3788,787.14822 L 1019.838,782.50097 L 1021.0703,782.19928 z"/><path id="path4147" d="M 1021.0703,782.19928 L 1021.1076,776.58278 L 1027.6873,776.46724 L 1027.8867,782.42929 L 1023.6889,786.52145 L 1019.838,782.50097 L 1021.0703,782.19928 z" style="fill:url(#radialGradient4155);fill-opacity:1;fill-rule:evenodd;stroke:none;stroke-width:1px;stroke-linecap:butt;stroke-linejoin:miter;stroke-opacity:1"/><path style="fill:none;fill-opacity:1;fill-rule:nonzero;stroke:url(#linearGradient4157);stroke-width:1;stroke-linecap:square;stroke-linejoin:miter;stroke-miterlimit:4;stroke-opacity:1" id="path4149" d="M 1020.8642,781.38404 L 1020.8642,776.38384 L 1027.8646,776.38384 L 1027.8646,781.38404"/><path style="fill:none;fill-opacity:1;fill-rule:nonzero;stroke:#00561d;stroke-width:1;stroke-linecap:square;stroke-linejoin:miter;stroke-miterlimit:4;stroke-opacity:1" id="path4151" d="M 1027.8606,782.31893 L 1029.314,782.31893 L 1024.3645,787.26844 L 1019.415,782.31897 L 1020.8619,782.31896"/></g><rect style="opacity:1;fill:none;fill-opacity:1;fill-rule:nonzero;stroke:url(#linearGradient4159);stroke-width:1;stroke-linecap:round;stroke-linejoin:miter;stroke-miterlimit:4;stroke-dasharray:none;stroke-opacity:1" id="rect4153" width="19" height="4" x="1015.041" y="727.713"/></g><g id="g4161" transform="translate(-106.37966,460.66219)" style="fill:none"><g id="g4165" style="fill:none;display:inline"><g id="g4167" style="fill:none"><path id="path4169" d="M 760.76114 433.07086 A 395.53806 395.53806 0 1 1 -30.314972,433.07086 A 395.53806 395.53806 0 1 1 760.76114 433.07086 z" transform="matrix(0.1596245,0,0,0.1596247,379.49308,368.61522)" style="fill:none;fill-opacity:1;fill-rule:evenodd;stroke:none;stroke-width:10;stroke-linecap:butt;stroke-linejoin:round;stroke-miterlimit:4;stroke-dasharray:none;stroke-dashoffset:0;stroke-opacity:1"/><path id="path4171" d="M 383.85677,470.3348 C 377.53204,457.98527 375.8029,449.83833 374.32889,438.05062 C 378.14146,437.94123 379.22897,435.80777 405.78478,441.52285 C 412.95251,445.17623 425.27294,447.28507 427.75792,447.19904 C 429.11551,447.27814 440.81785,446.52116 442.80237,445.22243 C 444.78976,444.34028 458.801,442.11776 463.91919,441.56168 C 467.10108,441.09167 468.42806,440.43433 471.65702,440.40231 C 483.01314,435.05163 496.02212,436.88091 501.18154,438.05673 C 501.07384,442.40555 500.53825,448.50951 499.73619,451.31426 C 498.90133,455.26551 498.48114,457.35905 496.52855,460.90786 C 495.66551,464.98599 493.73148,467.62488 490.6986,472.53442 C 487.53223,477.49134 481.84147,482.66091 475.34008,488.08582 C 470.98549,493.97562 455.61977,497.11357 452.39233,498.97297 C 443.83341,501.28353 435.24983,502.14089 420.22819,498.1061 C 403.58315,494.46692 390.60207,479.49025 383.85677,470.3348 z" style="fill:none;fill-opacity:1;fill-rule:evenodd;stroke:none;stroke-width:1px;stroke-linecap:butt;stroke-linejoin:miter;stroke-opacity:1"/><path id="path4173" d="M 375.79574,423.19042 C 376.46114,420.52879 378.05483,415.05973 379.69198,412.87686 C 382.42822,409.22852 386.68249,400.6601 389.77634,396.37516 C 394.2965,390.11479 408.02971,381.77281 414.07051,378.9567 C 423.39221,374.61108 446.52624,372.59535 459.45016,378.49832 C 464.99074,381.02897 475.71552,386.57191 480.07729,391.10378 C 484.14231,395.32736 490.59739,402.8387 493.82869,409.439 C 495.57775,413.01167 500.99233,427.2117 500.24601,427.31584 C 495.53266,427.97351 490.67725,429.69832 485.80703,431.21207 C 482.37937,432.27745 476.48862,435.10831 475.72267,435.10831 C 472.28481,435.10831 460.23197,434.26949 456.69987,434.42074 C 453.17776,434.57156 447.8344,434.5166 446.15714,434.87911 C 441.00943,435.99167 432.69168,434.7769 427.82192,431.89964 C 418.57716,433.82204 415.04824,435.24719 400.54829,430.52451 C 388.3259,426.54363 377.49956,429.46826 376.02493,429.83693 C 374.07594,430.32418 375.44514,424.59281 375.79574,423.19042 z" style="fill:none;fill-opacity:1;fill-rule:evenodd;stroke:none;stroke-width:1px;stroke-linecap:butt;stroke-linejoin:miter;stroke-opacity:1"/><path id="path4175" d="M 374.65256,430.0385 C 374.1887,430.34605 374.35404,436.70005 374.7261,439.81207 C 375.42381,441.15213 373.96937,442.96262 374.78727,444.23876 C 375.84956,445.50451 392.75119,448.41324 405.78478,441.52285 C 412.95251,445.17623 425.27294,447.28507 427.75792,447.19904 C 429.11551,447.27814 458.801,442.11776 463.91919,441.56168 C 467.10108,441.09167 470.26158,440.43433 473.49054,440.40231 C 475.67907,440.32301 485.08548,442.41714 487.59909,443.4404 C 495.57724,446.6882 498.5412,445.36222 500.03457,445.84665 C 500.38527,444.69491 500.99662,442.77975 500.65295,440.54231 C 500.50567,437.84705 501.46062,431.68974 500.42478,429.96717 C 499.56175,429.23232 500.65489,427.62005 499.65535,427.39573 C 496.29864,427.96353 490.39889,429.69905 485.51354,431.30509 C 481.21376,432.7304 479.36406,434.16468 476.48881,434.25965 C 473.78485,435.08987 466.87025,434.66767 463.75584,434.59846 C 457.13736,433.14541 450.20817,429.71277 443.01922,428.49117 C 439.12299,428.19282 431.02825,430.04129 427.80082,431.90068 C 422.67976,429.39825 411.16165,427.88261 406.91193,427.51487 C 391.41486,426.16632 379.20302,428.83964 374.65256,430.0385 z" style="fill:none;fill-opacity:.50196078;fill-rule:evenodd;stroke:none;stroke-width:1px;stroke-linecap:butt;stroke-linejoin:miter;stroke-opacity:1"/><path id="path4177" d="M 760.76114 433.07086 A 395.53806 395.53806 0 1 1 -30.314972,433.07086 A 395.53806 395.53806 0 1 1 760.76114 433.07086 z" transform="matrix(0.1596245,0,0,0.1596247,379.49308,368.61522)" style="fill:none;fill-opacity:.36184208;fill-rule:evenodd;stroke:#26269a;stroke-width:10.80470085;stroke-linecap:butt;stroke-linejoin:round;stroke-miterlimit:4;stroke-dasharray:none;stroke-dashoffset:0;stroke-opacity:1"/></g></g></g><g id="g4181" transform="matrix(2.8571604,0,0,2.8571604,-2595.8677,-1195.0115)"><rect id="rect4183" width="27" height="18" x="1011.042" y="722.698" style="opacity:1;fill:#f3f4f5;fill-opacity:1;fill-rule:nonzero;stroke:#3b556e;stroke-width:1;stroke-linecap:round;stroke-linejoin:miter;stroke-miterlimit:4;stroke-dasharray:none;stroke-opacity:1"/><rect id="rect4185" width="19" height="4" x="1015.041" y="727.713" style="opacity:1;fill:#fff;fill-opacity:1;fill-rule:nonzero;stroke:#00561d;stroke-width:1;stroke-linecap:round;stroke-linejoin:miter;stroke-miterlimit:4;stroke-dasharray:none;stroke-opacity:1"/><path id="path4187" d="M 1016.0339,727.75491 L 1016.0339,731.5766 L 1016.0339,727.75491 z" style="fill:none;fill-rule:evenodd;stroke:#49b83c;stroke-width:1px;stroke-linecap:butt;stroke-linejoin:miter;stroke-opacity:1"/><path style="fill:none;fill-rule:evenodd;stroke:#49b83c;stroke-width:1px;stroke-linecap:butt;stroke-linejoin:miter;stroke-opacity:1" id="path4189" d="M 1018.028,727.7436 L 1018.028,731.56529 L 1018.028,727.7436 z"/><path id="path4191" d="M 1020.017,727.73673 L 1020.017,731.55842 L 1020.017,727.73673 z" style="fill:none;fill-rule:evenodd;stroke:#49b83c;stroke-width:1px;stroke-linecap:butt;stroke-linejoin:miter;stroke-opacity:1"/><path style="fill:none;fill-rule:evenodd;stroke:#49b83c;stroke-width:1px;stroke-linecap:butt;stroke-linejoin:miter;stroke-opacity:1" id="path4193" d="M 1022.0115,727.60918 L 1022.0115,731.43087 L 1022.0115,727.60918 z"/><path id="path4195" d="M 1023.9948,727.6158 L 1023.9948,731.43749 L 1023.9948,727.6158 z" style="fill:none;fill-rule:evenodd;stroke:#49b83c;stroke-width:1px;stroke-linecap:butt;stroke-linejoin:miter;stroke-opacity:1"/><rect style="opacity:1;fill:none;fill-opacity:1;fill-rule:nonzero;stroke:#73c890;stroke-width:1;stroke-linecap:round;stroke-linejoin:miter;stroke-miterlimit:4;stroke-dasharray:none;stroke-opacity:1" id="rect4197" width="19" height="4" x="1015.041" y="727.713"/><g id="g4199" transform="translate(0.1771012,-38.795917)"><path id="path4201" d="M 1021.0703,782.19928 L 1021.1076,776.58278 L 1027.6873,776.46724 L 1027.6798,782.32766 L 1028.8523,782.41752 L 1024.3788,787.14822 L 1019.838,782.50097 L 1021.0703,782.19928 z" style="fill:#6ec527;fill-opacity:1;fill-rule:evenodd;stroke:none;stroke-width:1px;stroke-linecap:butt;stroke-linejoin:miter;stroke-opacity:1"/><path style="fill:url(#radialGradient4215);fill-opacity:1;fill-rule:evenodd;stroke:none;stroke-width:1px;stroke-linecap:butt;stroke-linejoin:miter;stroke-opacity:1" id="path4203" d="M 1021.0703,782.19928 L 1021.1076,776.58278 L 1027.6873,776.46724 L 1027.8867,782.42929 L 1023.6889,786.52145 L 1019.838,782.50097 L 1021.0703,782.19928 z"/><path id="path4205" d="M 1020.8642,781.38404 L 1020.8642,776.38384 L 1027.8646,776.38384 L 1027.8646,781.38404" style="fill:none;fill-opacity:1;fill-rule:nonzero;stroke:url(#linearGradient4217);stroke-width:1;stroke-linecap:square;stroke-linejoin:miter;stroke-miterlimit:4;stroke-opacity:1"/><path id="path4207" d="M 1027.8606,782.31893 L 1029.314,782.31893 L 1024.3645,787.26844 L 1019.415,782.31897 L 1020.8619,782.31896" style="fill:none;fill-opacity:1;fill-rule:nonzero;stroke:#00561d;stroke-width:1;stroke-linecap:square;stroke-linejoin:miter;stroke-miterlimit:4;stroke-opacity:1"/></g><rect id="rect4209" width="19" height="4" x="1015.041" y="727.713" style="opacity:1;fill:none;fill-opacity:1;fill-rule:nonzero;stroke:url(#linearGradient4219);stroke-width:1;stroke-linecap:round;stroke-linejoin:miter;stroke-miterlimit:4;stroke-dasharray:none;stroke-opacity:1"/></g></g></svg>