<svg xmlns="http://www.w3.org/2000/svg" xmlns:osb="http://www.openswatchbook.org/uri/2009/osb" xmlns:svg="http://www.w3.org/2000/svg" id="svg68075" width="18" height="18" version="1.1"><metadata id="metadata68081"/><defs id="defs68079"><linearGradient id="linearGradient69547" osb:paint="solid"><stop style="stop-color:#eecb20;stop-opacity:1" id="stop69545" offset="0"/></linearGradient></defs><g id="layer2" style="display:inline"><path id="path77072" d="m 6.8194899,3.6676829 c 0,0 -1.5664037,1.9124961 -4.8594892,5.5898643 C -1.3330856,12.934914 4.4611524,19.40164 7.4269247,16.137379 10.392697,12.873119 14.121702,8.6857836 16.34864,6.1186233 18.575582,3.551463 14.758628,-0.78139789 12.476236,1.7327302 10.193845,4.2468574 6.3806119,8.6385171 4.9212518,10.289521 3.4618907,11.940526 5.6504624,14.00041 6.9713487,12.525467 8.292233,11.050523 13.767037,4.9146521 13.767037,4.9146521" style="color:#000;clip-rule:nonzero;display:inline;overflow:visible;visibility:visible;opacity:1;isolation:auto;mix-blend-mode:normal;color-interpolation:sRGB;color-interpolation-filters:linearRGB;solid-color:#000;solid-opacity:1;fill:none;fill-opacity:1;fill-rule:evenodd;stroke:#f0b305;stroke-width:1.95830035;stroke-linecap:round;stroke-linejoin:round;stroke-miterlimit:4;stroke-dasharray:none;stroke-dashoffset:0;stroke-opacity:1;color-rendering:auto;image-rendering:auto;shape-rendering:auto;text-rendering:auto;enable-background:accumulate"/></g><g id="layer1" style="display:none" transform="translate(-22.386738,-79.656408)"><path style="color:#000;clip-rule:nonzero;display:inline;overflow:visible;visibility:visible;opacity:1;isolation:auto;mix-blend-mode:normal;color-interpolation:sRGB;color-interpolation-filters:linearRGB;solid-color:#000;solid-opacity:1;fill:none;fill-opacity:1;fill-rule:evenodd;stroke:#fad938;stroke-width:.80000001;stroke-linecap:round;stroke-linejoin:round;stroke-miterlimit:4;stroke-dasharray:none;stroke-dashoffset:0;stroke-opacity:1;color-rendering:auto;image-rendering:auto;shape-rendering:auto;text-rendering:auto;enable-background:accumulate" id="path77076" d="m 6.8194899,3.6676829 c 0,0 -1.5664037,1.9124961 -4.8594892,5.5898643 C -1.3330856,12.934914 4.4611524,19.40164 7.4269247,16.137379 10.392697,12.873119 14.121702,8.6857836 16.34864,6.1186233 18.575582,3.551463 14.758628,-0.78139789 12.476236,1.7327302 10.193845,4.2468574 6.3806119,8.6385171 4.9212518,10.289521 3.4618907,11.940526 5.6504624,14.00041 6.9713487,12.525467 8.292233,11.050523 13.767037,4.9146521 13.767037,4.9146521" transform="translate(22.386738,79.656408)"/></g></svg>