<svg xmlns="http://www.w3.org/2000/svg" width="210" height="207" viewBox="0 0 210 207"><defs><linearGradient id="linearGradient-1" x1="82.41%" x2="12.81%" y1="91.793%" y2="15.109%"><stop offset="0%" stop-color="#130036"/><stop offset="23%" stop-color="#18023B"/><stop offset="51.2%" stop-color="#26094A"/><stop offset="82.1%" stop-color="#3D1563"/><stop offset="100%" stop-color="#4E1D75"/></linearGradient><linearGradient id="linearGradient-2" x1="0%" x2="100%" y1="49.999%" y2="49.999%"><stop offset="0%" stop-color="#3156A8"/><stop offset="24.7%" stop-color="#3351A4"/><stop offset="53.6%" stop-color="#3B4397"/><stop offset="84.5%" stop-color="#472C82"/><stop offset="100%" stop-color="#4E1D75"/></linearGradient><radialGradient id="radialGradient-3" cx="50%" cy="50%" r="72.154%" fx="50%" fy="50%" gradientTransform="translate(0.500000,0.499999),scale(1.000000,0.562105),translate(-0.500000,-0.499999)"><stop offset="16.5%" stop-color="#14CDDA"/><stop offset="54.8%" stop-color="#2061BD"/><stop offset="65.5%" stop-color="#2658AC"/><stop offset="86.4%" stop-color="#373F81"/><stop offset="100%" stop-color="#432D62"/></radialGradient><linearGradient id="linearGradient-4" x1="0%" x2="100%" y1="50%" y2="50%"><stop offset="0%" stop-color="#2061BD"/><stop offset="18.5%" stop-color="#2B51AC"/><stop offset="68.3%" stop-color="#442C84"/><stop offset="94.1%" stop-color="#4E1D75"/></linearGradient><linearGradient id="linearGradient-5" x1="14.558%" x2="82.218%" y1="22.097%" y2="105.774%"><stop offset="2%" stop-color="#48A8E0"/><stop offset="38.8%" stop-color="#2061BD"/><stop offset="49.7%" stop-color="#2B51AC"/><stop offset="78.9%" stop-color="#442C84"/><stop offset="94.1%" stop-color="#4E1D75"/></linearGradient><linearGradient id="linearGradient-6" x1="-61.715%" x2="79.277%" y1="142.166%" y2="11.224%"><stop offset="37.9%" stop-color="#3156A8"/><stop offset="100%" stop-color="#4E1D75"/></linearGradient><linearGradient id="linearGradient-7" x1="-6.887%" x2="71.148%" y1="137.86%" y2="7.467%"><stop offset="0%" stop-color="#29ABE2"/><stop offset="77.3%" stop-color="#385AA6"/><stop offset="85.8%" stop-color="#414293"/><stop offset="100%" stop-color="#4E1D75"/></linearGradient><linearGradient id="linearGradient-8" x1="21.224%" x2="53.779%" y1="39.777%" y2="55.09%"><stop offset="0%" stop-color="#B0DCD6"/><stop offset="100%" stop-color="#53ACE0"/></linearGradient><polygon id="path-9" points=".251 .665 85.298 .665 85.298 80.035 .251 80.035"/><linearGradient id="linearGradient-11" x1="90.675%" x2="10.455%" y1="71.352%" y2="33.187%"><stop offset="0%" stop-color="#3092B9"/><stop offset="22%" stop-color="#258DB6"/><stop offset="65.6%" stop-color="#1685B1"/><stop offset="100%" stop-color="#1082AF"/></linearGradient><linearGradient id="linearGradient-12" x1="42.268%" x2="61.448%" y1="13.563%" y2="86.403%"><stop offset=".7%" stop-color="#1398D1" stop-opacity="0"/><stop offset="24.8%" stop-color="#1187C2" stop-opacity=".62"/><stop offset="64.2%" stop-color="#3F6499" stop-opacity=".71"/><stop offset="100%" stop-color="#2F4282" stop-opacity=".5"/></linearGradient><linearGradient id="linearGradient-13" x1="74.861%" x2="20.751%" y1="62.597%" y2="33.077%"><stop offset="0%" stop-color="#F9C21B"/><stop offset="14.8%" stop-color="#F3BA1B"/><stop offset="37.9%" stop-color="#E3A41B"/><stop offset="66.3%" stop-color="#C9801C"/><stop offset="98.8%" stop-color="#A44E1C"/><stop offset="100%" stop-color="#A34C1C"/></linearGradient><linearGradient id="linearGradient-14" x1="56.82%" x2="6.881%" y1="80.845%" y2="13.355%"><stop offset="0%" stop-color="#409EC3"/><stop offset="62%" stop-color="#2061BD"/></linearGradient><linearGradient id="linearGradient-15" x1="65.664%" x2="41.517%" y1="91.123%" y2="7.281%"><stop offset="0%" stop-color="#14B2DA"/><stop offset="40.3%" stop-color="#297CCC"/><stop offset="50.8%" stop-color="#256FC5"/><stop offset="64.9%" stop-color="#2164BF"/><stop offset="81.6%" stop-color="#2061BD"/><stop offset="98.4%" stop-color="#2061BD"/></linearGradient><linearGradient id="linearGradient-16" x1="0%" x2="100%" y1="100%" y2="0%"><stop offset="0%" stop-color="#FF0039"/><stop offset="100%" stop-color="#A4000F"/></linearGradient></defs><g id="about-logo" transform="translate(0.000000, -6.802721)"><path id="Path" fill="url(#linearGradient-1)" d="M160.618197,36.9829932 C148.287415,28.9285714 132.517857,26.3214286 123.814626,25.4107143 C114.5,24.4370748 106.409864,24.6088435 99.2942177,25.6530612 C98.6913265,25.6454082 98.0918367,25.6215986 97.4855442,25.6215986 C97.0229592,25.6215986 96.5671769,25.6411565 96.1020408,25.6462585 C96.2933673,25.412415 96.4260204,25.2678571 96.4260204,25.2678571 C96.4260204,25.2678571 96.0518707,25.3265306 95.3171769,25.6590136 C93.0068027,25.6964286 90.707483,25.7763605 88.4421769,25.9311224 C91.5977891,22.4719388 94.1828231,20.6590136 94.1828231,20.6590136 C94.1828231,20.6590136 91.1147959,21.1079932 85.5161565,26.1828231 C82.8528912,26.4277211 80.2261905,26.752551 77.6437075,27.1564626 C83.5263605,19.1955782 89.6802721,15.8435374 89.6802721,15.8435374 C89.6802721,15.8435374 82.2210884,14.3248299 70.5416667,26.0612245 C69.5815768,27.0365916 68.6607768,28.0498688 67.7814626,29.0986395 C33.7414966,37.3358844 9.3792517,59.3180272 9.3792517,85.1522109 C9.3792517,90.2185374 7.82397959,95.7908163 9.50085034,101.354592 C8.83078231,110.243197 10.2576531,134.496599 10.2576531,134.496599 C10.2576531,134.496599 19.4727891,184.368197 54.9090136,193.039116 C55.4719388,193.173469 47.505102,180.607143 43.9812925,165.452381 C50.8426871,172.431973 59.0195578,177.951531 68.1972789,178.908163 C69.3239796,179.02466 62.954932,171.561224 57.3767007,162.552721 L137.902211,189.683673 C180.018707,171.593537 175.115646,173.223639 184.158163,163.429422 C204.079932,141.864796 206.869048,129.628401 201.85034,93.5017007 C198.454932,69.1147959 180.455782,44.9617347 160.618197,36.9829932 Z"/><polygon id="Path" fill="#FBFBFB" points="19.292 59.759 7.267 128.129 13.935 148.787 147.033 193.04 171.717 88.088"/><path id="Path" fill="#999" d="M19.6666667,62.0833333 C20.3341837,63.5195578 20.1377551,63.8596939 19.7219388,63.8596939 C19.5348639,63.8596939 19.3035714,63.7908163 19.0867347,63.7227891 C18.869898,63.6539116 18.6666667,63.5858844 18.5357143,63.5858844 C18.167517,63.5858844 18.375,64.1292517 20.460034,66.7491497 C23.4090136,70.4957483 66.7176871,135.87585 69.0841837,135.87585 C69.0957233,135.876007 69.1072116,135.874284 69.1181973,135.870748 C89.2797619,128.687075 175.022109,99.2568027 175.022109,99.2568027 L166.25,86.4770408 L19.6666667,62.0833333"/><path id="Path" fill="#F8F8F8" d="M20.9243197,60.4770408 C20.9243197,60.4770408 21.5705782,63.8205782 24.5646259,67.5212585 C27.5408163,71.2559524 67.5153061,131.782313 69.5212585,131.24915 C95.707483,124.296769 190.715986,87.3086735 190.715986,87.3086735 L20.9243197,60.4770408 Z"/><polygon id="Path" fill="#999" points="142.28 191.463 15.789 149.407 16.236 152.362 143.687 194.738"/><path id="Path" fill="url(#linearGradient-2)" d="M49.0680272,57.6488095 C49.0680272,57.6488095 3.04591837,71.1267007 24.1632653,118.05102 C24.1632653,118.05102 14.4804422,109.185374 8.71513605,97.8494898 C8.45578231,97.3418367 18.3248299,62.2806122 18.3248299,62.2806122 L49.0680272,57.6488095 Z"/><path id="Path" fill="url(#radialGradient-3)" d="M24.1632653,118.05102 C20.1607143,117.982143 13.7304422,114.680272 11.6445578,110.682823 C9.03741497,154.133503 26.7653061,179.508503 54.9098639,193.040816 C45.7134354,191.986395 0,167.863095 0,109.812925 C0,60.4532313 39.1666667,16.3333333 100.460884,14.3120748 C100.836735,17.0790816 70.0731293,24.0178571 69.0892857,27.2806122 C67.5620748,32.3588435 64.0518707,37.8869048 61.0909864,42.3180272 C57.0790816,48.3222789 66.6666667,53.4566327 59.6207483,55.0739796 C49.0187075,57.5068027 34.877551,56.1598639 24.4498299,69.7159864 C8.77465986,90.0943878 19.2346939,113.405612 24.1632653,118.05102 Z"/><path id="Path" fill="url(#linearGradient-4)" d="M116.537415,15.9005102 C76.8418367,12.8545918 56.412415,28.7380952 43.297619,47.207483 C38.5212585,53.9302721 39.0442177,60.1037415 40.6887755,67.5620748 C41.3954082,70.7457483 42.1096939,72.2712585 41.2491497,75.5170068 C40.7746599,77.3078231 40.8537415,78.9795918 40.2644558,80.0357143 C39.4489796,81.4957483 38.4107143,83.0918367 38.0629252,85.7134354 C37.1938776,92.2602041 39.5110544,94.3452381 40.9591837,96.547619 C43.0221088,94.4991497 47.0518707,89.6777211 54.3180272,86.797619 C61.5841837,83.917517 66.3647959,79.5892857 75.4710884,74.9430272 C87.9132653,68.5969388 102.496599,78.2244898 130.147959,69.1641156 C138.656463,66.3758503 158.210884,37.4090136 162.852891,36.2967687 C149.92517,22.0008503 127.931973,16.7738095 116.537415,15.9005102 Z"/><path id="Path" fill="#3F6499" d="M90.3120748,6.82993197 C90.3120748,6.82993197 83.2244898,10.2534014 80.1377551,16.4396259 C87.2644558,12.8469388 91.4013605,10.8843537 93.3571429,10.6505102 C93.3571429,10.6505102 91.4838435,11.5578231 89.1607143,16.4923469 C93.2678571,15.1768707 94.6819728,14.3477891 95.8095238,14.335034 C95.8095238,14.335034 95.4821429,14.8537415 95.1828231,19.7789116 C88.8758503,17.7346939 76.7363946,20.1164966 70.2789116,24.1607143 C68.0884354,12.4812925 90.3120748,6.82993197 90.3120748,6.82993197 Z"/><path id="Path" fill="url(#linearGradient-5)" d="M118.519558,14.1411565 C106.352041,12.5646259 96.1811224,12.875 87.5340136,14.5408163 C90.2534014,11.9345238 93.3996599,10.6505102 93.3996599,10.6505102 C89.3222789,11.0110544 84.2321429,13.672619 79.8647959,16.4906463 C77.7279852,17.1679524 75.6301319,17.9625249 73.5807823,18.8707483 C74.7967687,17.2678571 76.2117347,15.5552721 77.5943878,14.2406463 C82.7295918,9.35714286 90.3545918,6.82993197 90.3545918,6.82993197 C83.8460884,6.35204082 62.0654762,11.9277211 48.9591837,38.4736395 C46.8112245,41.0901361 44.8069728,43.7755102 42.8971088,46.4651361 C37.9668367,53.4073129 38.5076531,59.7797619 40.2083333,67.4812925 C40.9328231,70.7695578 41.0663265,76.0187075 40.3511905,79.4107143 C40.2083333,80.0901361 38.3418367,81.8452381 37.8630952,86.577381 C37.3511905,91.5986395 39.1428571,94.0637755 40.9090136,96.1037415 C47.1845238,86.9268707 53.3758503,85.1079932 53.3758503,85.1079932 C62.1598639,81.5093537 65.8163265,77.6658163 75.2193878,72.8690476 C88.0663265,66.3137755 132.990646,87.707483 161.539116,78.3520408 C170.32483,75.4744898 158.157313,38.0807823 162.953231,36.9328231 C149.603741,22.1709184 130.220238,15.6573129 118.519558,14.1411565 Z"/><path id="Path" fill="url(#linearGradient-6)" d="M207.632653,94.6326531 C200.595238,57.8664966 166.734694,24.4183673 139.505952,22.5646259 C127.421769,21.7414966 131.132653,27.9379252 123.571429,30.297619 C90.9863946,40.4668367 90.4880952,46.4039116 90.4880952,46.4039116 C159.579932,49.6513605 160.627551,117.886905 142.12415,135.15051 C147.330782,133.936224 152.97619,127.570578 158.160714,117.577381 C157.538265,121.770408 157.004252,126.914116 156.227041,132.653061 C153.856293,150.165816 156.926871,186.746599 106.604592,211.228741 C106.604592,211.228741 134.131803,208.978741 147.782313,193.612245 C142.231293,206.377551 126.99915,213.272959 126.99915,213.272959 C138.208333,211.633503 167.653912,202.944728 186.410714,179.487245 C207.640306,152.935374 214.02466,128.02551 207.632653,94.6326531 Z"/><path id="Path" fill="url(#linearGradient-7)" d="M140.30017,161.752551 C140.30017,161.752551 162.745748,155.477041 169.979592,143.357143 C169.102041,157.488946 156.283163,171.981293 156.283163,171.981293 C156.283163,171.981293 175.022959,168.188776 183.014456,155.001701 C181.973639,166.901361 167.545918,182.983844 167.545918,182.983844 C182.295918,180.336735 219.357143,156.92517 207.633503,94.6326531 C200.710034,57.8452381 166.735544,24.4183673 139.506803,22.5646259 C127.422619,21.7414966 131.133503,27.9379252 123.572279,30.297619 C90.9872449,40.4668367 90.4889456,46.4039116 90.4889456,46.4039116 C159.580782,49.6513605 177.941327,85.8120748 142.125,134.185374 C147.331633,132.970238 149.419218,130.108844 153.330782,125.42602 C153.329082,125.42602 155.102891,143.946429 140.30017,161.752551 Z"/><path id="Path" fill="url(#linearGradient-8)" d="M51.5382653,79.5637755 C51.5382653,79.5637755 47.5255102,82.3707483 44.619898,81.6556122 C41.1802721,80.8112245 40.5977891,77.4778912 40.5977891,77.4778912 C40.5221088,78.1607143 40.4345238,78.8197279 40.3078231,79.4107143 C40.164966,80.0901361 38.2984694,81.8452381 37.8197279,86.577381 C37.3078231,91.5986395 39.1930272,94.5068027 40.9591837,96.5467687 C47.2355442,87.369898 53.3333333,85.1079932 53.3333333,85.1079932 C50.9447279,84.2729592 51.5382653,79.5637755 51.5382653,79.5637755 Z"/><g id="Clipped" transform="translate(77.380952, 0.000000)"><g id="Group" mask="url(#mask-10)" opacity=".6"><g opacity=".2"><g transform="translate(60.374150, 22.108844)"><path id="Path" fill="url(#linearGradient-11)" d="M1.28656463,0.369047619 C2.22704082,0.125 6.06632653,0.542517007 8.58588435,1.67261905 C11.1062925,2.80272109 15.4506803,4.80102041 11.9753401,5.67006803 C8.49914966,6.53911565 6.50085034,5.14880952 4.7627551,3.67091837 C3.02465986,2.19302721 -1.05952381,0.977040816 1.28656463,0.369047619 Z"/></g></g></g></g><path id="Path" fill="url(#linearGradient-12)" d="M51.9141156,79.0144558 C51.9141156,79.0144558 73.9277211,42.7372449 93.8290816,32.9472789 C95.6768707,32.0178571 66.2738095,40.7627551 54.4413265,53.8231293 C47.4081633,61.5858844 51.1326531,76.7840136 51.9141156,79.0144558 Z"/><path id="Path" fill="#F2F2F2" d="M51.9141156,79.0144558 L51.9778912,78.9761905 C57.670068,75.4591837 67.4251701,73.4336735 70.5697279,67.0586735 C82.6760204,42.5102041 93.829932,32.9472789 93.829932,32.9472789 C73.9277211,42.7372449 51.9141156,79.0144558 51.9141156,79.0144558 Z" opacity=".1"/><path id="Path" fill="#2F4282" d="M54.0068027,72.3792517 C54.0068027,72.3792517 50.0391156,66.2916667 55.752551,60.7406463 C58.7678571,57.8154762 63.3367347,59.4404762 63.8647959,59.9668367 C66.1130952,62.1964286 64.6998299,66.9022109 62.6760204,69.5654762 C61.5323129,71.0654762 58.2040816,73.4005102 54.0068027,72.3792517 Z"/><path id="Path" fill="url(#linearGradient-13)" d="M56.2814626,72.0017007 C56.2814626,72.0017007 53.539966,67.7933673 57.4906463,63.9583333 C59.5705782,61.9379252 62.7295918,63.0603741 63.0960884,63.422619 C64.6488095,64.9634354 63.6709184,68.2159864 62.2729592,70.0552721 C61.4829932,71.0952381 59.1819728,72.707483 56.2814626,72.0017007 Z"/><path id="Path" fill="#000" d="M61.7542517,67.5110544 C61.6930272,69.1930272 60.2695578,70.5059524 58.5756803,70.4481293 C56.8784014,70.3894558 55.5501701,68.9804422 55.6105442,67.2984694 C55.6709184,65.6173469 57.0935374,64.3044218 58.7916667,64.3622449 C60.4855442,64.4209184 61.8129252,65.8307823 61.7542517,67.5110544 Z"/><circle id="Oval" cx="56.739" cy="66.571" r="1" fill="#FFF"/><path id="Path" fill="url(#linearGradient-14)" d="M194.306973,62.0833333 C179.238095,39.1445578 167.29932,33.3154762 167.29932,33.3154762 C167.29932,33.3154762 167.847789,50.0246599 176.214286,58.0841837 C177.170068,59.005102 166.202381,50.9141156 166.202381,50.9141156 C166.202381,50.9141156 163.857143,58.6318027 169.231293,67.5042517 C167.670068,65.4302721 166.636905,64.6445578 166.636905,64.6445578 C166.636905,64.6445578 156.511054,69.3137755 153.522109,75.7916667 C151.978741,72.8784014 150.821429,71.162415 150.821429,71.162415 C150.821429,71.162415 143.818027,85.1394558 144.698129,101.345238 C146.130102,127.695578 139.763605,137.403061 139.763605,137.403061 C139.763605,137.403061 156.818878,130.859694 164.998299,109.794218 C168.377551,118.75085 164.895408,128.177721 164.895408,128.177721 C164.895408,128.177721 178.67602,117.880952 181.639456,99.1130952 C184.92432,104.410714 183.958333,114.983844 183.958333,114.983844 C183.958333,114.983844 192.754252,102.737245 192.968537,89.4005102 C197.045068,92.2431973 197.420068,103.345238 197.420068,103.345238 C197.420068,103.345238 210.460884,86.6734694 194.306973,62.0833333 Z"/><path id="Path" fill="url(#linearGradient-15)" d="M179.661565,46.0527211 C175.723639,38.7142857 168.77466,34.037415 162.666667,30.2517007 C147.437925,20.8086735 137.643707,19.4821429 137.643707,19.4821429 C137.643707,19.4821429 123.589286,22.0960884 126.003401,26.0059524 C126.127551,26.2066327 126.417517,26.4608844 126.826531,26.7517007 C114.498299,21.0731293 107.505102,34.130102 107.505102,34.130102 C100.460884,33.702381 91.8835034,37.170068 89.3826531,46.4591837 C89.1232993,47.4234694 92.5382653,46.8809524 94.295068,47.2627551 C104.566327,49.4957483 114.235544,54.337585 118.678571,56.7304422 C129.013605,62.2984694 135.145408,71.5697279 138.685374,78.5238095 C142.968537,86.9370748 144.717687,101.741497 144.717687,101.741497 C144.717687,101.741497 155.987245,86.2610544 153.294218,78.3129252 C157.757653,81.085034 158.638605,90.9753401 158.638605,90.9753401 C158.638605,90.9753401 166.151361,79.2083333 163.930272,68.9591837 C169.72534,72.4906463 169.918367,79.6743197 169.918367,79.6743197 C169.918367,79.6743197 175.818878,71.4846939 173.152211,58.0527211 C178.983844,62.6896259 180.204082,68.6964286 180.204082,68.6964286 C180.204082,68.6964286 184.971088,55.9472789 179.661565,46.0527211 Z"/><g id="Group-10" transform="translate(80.000000, 138.000000)"><path id="Rectangle" fill="url(#linearGradient-16)" d="M0,0 L111,0 C118.731986,-1.42034288e-15 125,6.2680135 125,14 L125,53 L14,53 C6.2680135,53 9.46895252e-16,46.7319865 0,39 L0,0 Z" transform="translate(62.500000, 26.500000) scale(1, -1) translate(-62.500000, -26.500000)"/><path fill="#FFF" d="M36.3218753,26.359375 C36.3218753,30.1198105 35.2515735,32.99999 33.1109378,35 C30.9703021,37.00001 27.8791872,38 23.8375003,38 L17.3687503,38 L17.3687503,15.15625 L24.5406253,15.15625 C28.2698106,15.15625 31.165615,16.1406152 33.2281253,18.109375 C35.2906356,20.0781348 36.3218753,22.8281073 36.3218753,26.359375 Z M31.2906253,26.484375 C31.2906253,21.5781005 29.1239803,19.125 24.7906253,19.125 L22.2125003,19.125 L22.2125003,34 L24.2906253,34 C28.9573153,34 31.2906253,31.4948167 31.2906253,26.484375 Z M55.0400002,38 L53.3837502,32.5625 L45.0556252,32.5625 L43.3993752,38 L38.1806252,38 L46.2431252,15.0625 L52.1650002,15.0625 L60.2587502,38 L55.0400002,38 Z M52.2275002,28.5 C50.6962425,23.572892 49.834272,20.7864616 49.6415627,20.140625 C49.4488534,19.4947884 49.310834,18.9843769 49.2275002,18.609375 C48.8837485,19.942715 47.8993833,23.239557 46.2743752,28.5 L52.2275002,28.5 Z M63.7737501,38 L63.7737501,15.15625 L68.6175001,15.15625 L68.6175001,38 L63.7737501,38 Z M75.0074999,38 L75.0074999,15.15625 L79.8512499,15.15625 L79.8512499,34 L89.1168749,34 L89.1168749,38 L75.0074999,38 Z M99.8818748,24.5625 L104.6475,15.15625 L109.86625,15.15625 L102.288125,29.109375 L102.288125,38 L97.4756248,38 L97.4756248,29.265625 L89.8974998,15.15625 L95.1474998,15.15625 L99.8818748,24.5625 Z"/></g></g></svg>